<?xml version="1.0" standalone="no"?><!DOCTYPE svg PUBLIC "-//W3C//DTD SVG 1.1//EN" "http://www.w3.org/Graphics/SVG/1.1/DTD/svg11.dtd"><svg class="icon" height="512" viewBox="0 0 1024 1024" version="1.1" xmlns="http://www.w3.org/2000/svg"><path d="M501.00736 274.60608l30.29504 28.7232-122.90048 112.39936L347.8528 358.49728l-184.27392 168.77568 30.29504 28.73856L347.41248 415.232 407.9616 472.68352l153.48224-140.75392 30.28992 28.7232 0.74752-85.26848-91.47392-0.77824z m29.29664 142.16704l60.88192 0.54272-2.71872 312.448-60.88192-0.53248 2.71872-312.45824zM407.64928 501.0944l60.8768 0.53248-1.98656 227.072-60.86656-0.52224 1.97632-227.08224z m-122.1632 27.2384l60.88704 0.53248-1.73568 198.82496-60.8768-0.52224 1.72544-198.8352z m-122.46016 55.81312l60.87168 0.52736-1.23392 141.90592-60.8768-0.5376 1.23904-141.89568zM760.27904 908.79488H187.60704C84.15744 908.79488 0 817.64352 0 705.60256v-406.8352C0 186.7264 84.15744 95.57504 187.60704 95.57504h510.5408c103.44448 0 187.61728 91.15648 187.61728 203.19232H829.3376c0-80.9216-58.84928-146.75968-131.18464-146.75968H187.60704c-72.32512 0-131.1744 65.83808-131.1744 146.75968v406.82496c0 80.92672 58.84928 146.7648 131.1744 146.7648h572.672v56.43776zM798.4128 739.26144a160.512 160.512 0 0 1-11.6992-0.41984c-43.25888-3.09248-82.71872-22.84544-111.1296-55.62368-28.41088-32.77312-42.34752-74.65472-39.26528-117.91872 6.31808-88.4224 83.69664-156.9536 173.5424-150.38464 43.26912 3.07712 82.7392 22.8352 111.13984 55.61344 28.42112 32.77312 42.34752 74.65472 39.25504 117.9136-6.04672 84.57728-77.13792 150.81984-161.8432 150.81984z m-0.27136-268.34944c-55.23968 0-101.58592 43.22304-105.53344 98.41152a105.2672 105.2672 0 0 0 25.6256 76.93312 105.2672 105.2672 0 0 0 72.50432 36.29568c58.4192 4.18816 109.11232-40.41216 113.23392-98.14016a105.3184 105.3184 0 0 0-25.6256-76.94336c-18.5344-21.38112-44.27264-34.2784-72.50432-36.28032a108.3392 108.3392 0 0 0-7.70048-0.27648zM1017.6256 824.11008c7.7568 9.61024 5.44256 24.35072-5.18144 32.95232-10.61888 8.59648-25.53344 7.7824-33.28512-1.81248l-117.70368-145.44384c-7.74656-9.6-5.44768-24.34048 5.1712-32.95232 10.61376-8.59648 25.5488-7.79264 33.32096 1.81248l117.67808 145.44384z" /></svg>